<?xml version="1.0" standalone="no"?>
<!DOCTYPE svg PUBLIC "-//W3C//DTD SVG 20010904//EN"
 "http://www.w3.org/TR/2001/REC-SVG-20010904/DTD/svg10.dtd">
<svg version="1.0" xmlns="http://www.w3.org/2000/svg"
 width="512.000000pt" height="512.000000pt" viewBox="0 0 512.000000 512.000000"
 preserveAspectRatio="xMidYMid meet">
<metadata>
Created by potrace 1.11, written by Peter Selinger 2001-2013
</metadata>
<g transform="translate(0.000000,512.000000) scale(0.100000,-0.100000)"
fill="#000000" stroke="none">
<path d="M1048 4520 c-60 -18 -116 -67 -149 -131 -22 -42 -23 -56 -25 -289 -1
-135 -3 -251 -3 -257 -1 -9 -18 -13 -48 -13 -111 0 -181 -103 -139 -202 22
-50 66 -80 134 -87 l57 -6 0 -120 c0 -66 -1 -125 -3 -131 -1 -6 -23 -12 -48
-13 -83 -3 -140 -49 -150 -123 -13 -91 46 -159 145 -166 l56 -4 -1 -122 c-1
-66 -2 -126 -3 -132 -1 -6 -22 -12 -48 -13 -115 -4 -184 -108 -137 -207 24
-50 65 -75 132 -81 l57 -5 -1 -127 c-1 -69 -2 -129 -3 -133 -1 -3 -16 -6 -33
-5 -53 1 -94 -12 -121 -41 -50 -53 -59 -109 -26 -173 24 -47 81 -78 144 -79
l40 0 -1 -132 0 -133 -35 -1 c-58 -1 -95 -14 -122 -42 -52 -55 -61 -121 -23
-181 30 -47 76 -68 151 -70 l30 -1 1 -128 c1 -118 3 -133 27 -183 36 -72 85
-121 154 -156 l58 -28 1190 -1 c1336 -1 1249 -6 1329 73 72 70 81 107 81 325
0 104 3 188 6 188 3 0 18 -13 34 -30 28 -29 102 -63 160 -73 17 -3 107 -22
200 -42 94 -20 177 -39 185 -40 8 -2 49 -11 90 -20 98 -23 132 -24 148 -8 10
10 12 80 8 352 -3 188 -10 358 -16 379 -13 51 -37 85 -178 255 -65 78 -136
164 -157 192 -22 27 -46 56 -52 63 -7 7 -92 111 -190 230 -97 119 -180 219
-183 222 -3 3 -16 18 -30 33 l-25 28 0 502 -1 502 -27 51 c-14 28 -41 64 -59
79 -41 35 -115 68 -134 61 -8 -3 -14 -2 -14 2 0 4 -537 6 -1193 5 -1165 -2
-1193 -1 -1232 18 -22 10 -48 31 -59 45 -21 29 -32 91 -22 128 10 39 63 94 99
102 18 4 612 9 1322 10 710 1 1292 2 1295 3 3 0 11 10 18 22 11 17 11 25 -3
45 l-15 24 -1308 -1 c-719 0 -1319 -4 -1334 -9z m-22 -462 l49 -22 1216 0
1215 -1 37 -25 c21 -14 46 -43 57 -66 19 -39 20 -58 18 -463 l-3 -422 -55 66
c-30 37 -92 113 -138 169 -195 236 -227 264 -346 296 -106 29 -224 10 -314
-51 -73 -49 -207 -165 -242 -209 -78 -98 -99 -275 -48 -390 28 -63 62 -106
479 -611 112 -136 218 -264 234 -285 17 -20 35 -42 40 -48 6 -6 49 -58 95
-116 47 -57 97 -118 111 -135 15 -16 54 -64 88 -105 34 -41 70 -86 81 -98 19
-22 20 -39 20 -260 0 -131 -4 -253 -10 -271 -12 -44 -54 -87 -98 -102 -25 -8
-352 -11 -1201 -12 l-1167 0 -44 23 c-57 28 -104 79 -118 129 -7 21 -12 86
-12 145 l0 106 28 1 c15 0 57 1 95 2 37 1 67 -1 67 -4 0 -15 92 -51 130 -51
55 1 127 38 164 85 25 31 31 49 34 102 4 56 1 70 -22 109 -59 101 -181 134
-276 73 -29 -18 -51 -22 -127 -23 l-93 -1 0 133 0 134 95 0 c84 0 100 -3 126
-22 25 -19 44 -23 104 -23 67 0 76 3 112 31 62 50 84 98 80 171 -2 50 -9 71
-32 104 -64 90 -181 112 -275 50 -18 -11 -51 -16 -117 -17 l-93 -1 0 133 0
134 89 0 c76 0 96 -4 139 -26 138 -72 292 19 292 173 0 160 -174 253 -309 165
-18 -13 -49 -17 -118 -18 l-93 -1 0 133 0 134 89 0 c76 0 96 -4 139 -26 145
-75 301 26 290 188 -11 153 -183 236 -308 148 -19 -13 -46 -17 -117 -18 l-93
-1 0 135 0 134 89 0 c79 0 95 -3 144 -29 80 -42 163 -30 227 32 121 117 51
323 -116 340 -46 5 -99 -8 -134 -33 -19 -13 -47 -18 -117 -18 l-92 -1 -3 120
c-3 106 -1 129 7 129 2 0 24 -10 51 -22z m334 -295 c90 -82 -3 -221 -113 -168
-37 17 -57 50 -57 93 2 89 104 134 170 75z m-265 -78 l-1 -49 -144 -1 c-122 0
-147 3 -166 18 -23 18 -25 31 -9 58 14 23 22 24 178 24 l142 0 0 -50z m2008
-203 c51 -23 159 -127 150 -146 -2 -6 -88 -78 -190 -161 -102 -82 -202 -164
-222 -181 -20 -18 -70 -59 -111 -93 l-75 -60 -23 27 c-38 44 -68 94 -82 137
-15 44 -16 146 -1 173 5 9 9 20 10 25 2 17 31 64 58 92 58 62 199 170 252 192
69 29 161 27 234 -5z m301 -317 l76 -90 -33 -29 c-17 -15 -43 -38 -57 -50 -14
-12 -59 -49 -100 -81 -41 -33 -81 -66 -88 -73 -25 -23 -313 -257 -320 -259
-12 -4 -26 10 -88 87 -32 41 -62 77 -66 78 -11 5 -10 30 1 34 9 3 43 30 191
153 53 44 114 94 136 112 21 17 55 44 74 60 19 15 46 38 60 50 67 58 125 103
132 101 4 -2 41 -43 82 -93z m-2046 40 c85 -72 11 -209 -95 -177 -45 13 -73
54 -73 104 1 83 103 128 168 73z m-262 -77 c1 -30 -2 -48 -10 -49 -6 0 -73 -1
-148 -1 -117 -1 -141 1 -157 16 -22 20 -21 39 1 65 13 16 32 18 163 17 l148
-1 3 -47z m2557 -265 c57 -71 216 -263 352 -428 135 -165 254 -309 263 -320 9
-11 35 -42 57 -70 22 -27 50 -61 63 -75 12 -14 22 -28 22 -32 0 -4 -26 -28
-57 -54 -32 -25 -59 -50 -61 -55 -8 -19 -31 -7 -63 33 -45 55 -181 220 -194
234 -5 7 -24 29 -41 50 -41 50 -231 283 -253 309 -9 11 -51 63 -94 115 -43 52
-86 104 -95 115 -93 112 -152 186 -151 192 1 12 122 112 135 112 6 1 59 -56
117 -126z m-300 -85 c13 -18 33 -43 43 -55 30 -35 77 -91 164 -198 85 -104 94
-116 231 -281 46 -56 131 -160 189 -230 58 -71 129 -156 157 -191 29 -34 50
-68 47 -75 -6 -14 -153 -133 -158 -127 -2 4 -123 152 -158 194 -105 127 -137
167 -163 199 -16 21 -42 52 -56 70 -59 69 -290 349 -384 464 -55 68 -100 127
-100 132 0 10 144 130 156 130 4 0 18 -15 32 -32z m-1995 -133 c57 -48 48
-136 -18 -170 -37 -19 -54 -19 -95 1 -40 18 -60 61 -52 109 13 79 104 112 165
60z m-262 -77 c1 -27 -1 -48 -5 -49 -35 -4 -272 -1 -293 4 -27 7 -33 20 -28
57 3 32 29 37 177 36 l147 -1 2 -47z m2219 -231 c9 -9 88 -106 177 -215 89
-108 225 -273 302 -367 77 -93 143 -171 148 -173 19 -8 5 -33 -39 -69 -26 -21
-57 -46 -67 -56 -11 -9 -23 -16 -27 -15 -7 3 -63 71 -480 578 -106 129 -237
289 -291 354 -54 66 -97 123 -96 127 2 4 34 32 71 63 l69 56 109 -133 c61 -72
116 -140 124 -150z m-1954 -255 c56 -50 42 -139 -28 -168 -46 -20 -86 -10
-118 28 -37 43 -34 97 6 137 41 42 95 43 140 3z m-265 -74 c1 -30 -2 -48 -10
-49 -6 0 -73 -1 -149 -1 -142 -1 -162 4 -167 42 -7 52 11 58 185 56 l139 -1 2
-47z m3353 -316 l2 -138 -37 -29 c-21 -17 -83 -67 -138 -113 -72 -59 -107 -81
-121 -78 -11 3 -69 15 -130 27 -60 12 -112 24 -115 27 -3 2 6 13 20 24 14 11
45 37 69 57 179 149 437 360 442 360 3 1 7 -61 8 -137z m-3070 -186 c35 -42
15 -123 -37 -150 -69 -35 -152 15 -152 93 0 52 30 88 83 99 43 9 74 -3 106
-42z m-284 -59 c0 -40 -3 -47 -20 -48 -11 0 -78 -1 -148 -1 -132 -1 -152 5
-157 42 -7 53 12 59 185 57 l140 -2 0 -48z m3360 -91 c3 -82 -3 -91 -46 -78
-19 6 -52 13 -73 17 l-40 7 30 26 c54 50 119 101 123 97 2 -2 5 -33 6 -69z"/>
<path d="M3414 1337 c-10 -5 -21 -12 -24 -14 -2 -2 -5 -42 -6 -89 0 -46 -4
-87 -8 -91 -4 -4 -152 -8 -329 -9 -177 -1 -330 -2 -340 -3 -10 0 -22 -13 -28
-28 -8 -22 -6 -30 9 -46 18 -18 38 -19 354 -19 366 0 378 2 415 58 17 27 30
164 19 207 -8 31 -37 48 -62 34z"/>
<path d="M2272 1132 c-12 -2 -26 -11 -31 -20 -10 -19 1 -56 20 -67 18 -11 121
-6 136 7 16 13 17 64 1 74 -13 8 -90 12 -126 6z"/>
<path d="M1232 4318 c-18 -18 -14 -55 7 -70 27 -19 2071 -19 2094 0 17 15 13
62 -6 74 -7 4 -478 8 -1047 8 -793 0 -1039 -3 -1048 -12z"/>
<path d="M3566 4308 c-17 -24 -8 -51 22 -66 18 -10 94 -8 110 2 17 10 20 44 5
65 -21 31 -115 30 -137 -1z"/>
</g>
</svg>
